<svg width="36" height="36" viewBox="0 0 36 36" fill="none" xmlns="http://www.w3.org/2000/svg">
<path d="M33.2681 15.5748L33.1092 14.9005H18.4532V21.1034H27.21C26.3008 25.4206 22.0821 27.6931 18.6361 27.6931C16.1287 27.6931 13.4857 26.6384 11.7363 24.9432C10.8133 24.0345 10.0786 22.9527 9.57432 21.7597C9.06999 20.5667 8.80592 19.2859 8.79723 17.9907C8.79723 15.3779 9.97145 12.7644 11.68 11.0452C13.3886 9.32609 15.9691 8.36422 18.5348 8.36422C21.4732 8.36422 23.579 9.92445 24.3665 10.636L28.7744 6.25133C27.4814 5.11508 23.9292 2.25195 18.3928 2.25195C14.1213 2.25195 10.0256 3.88813 7.03168 6.87219C4.07715 9.81055 2.54785 14.0595 2.54785 18.002C2.54785 21.9444 3.99488 25.981 6.85801 28.9426C9.91731 32.101 14.25 33.752 18.7113 33.752C22.7704 33.752 26.6179 32.1615 29.3601 29.2759C32.0559 26.4352 33.4502 22.5048 33.4502 18.3845C33.4502 16.6498 33.2758 15.6198 33.2681 15.5748Z" fill="#6C63FF"/>
</svg>
